<svg xmlns="http://www.w3.org/2000/svg" viewBox="0 0 649 160" width="649" height="160" role="img" aria-label="Solera Polo"><g fill="#FAF8F4"><path d="M48.900000000000006 121.5Q42.150000000000006 121.5 37.575 119.4Q33.0 117.3 30.05 113.7L24.6 121.0H24.4V100.5H24.6Q25.45 104.95 27.200000000000003 108.725Q28.950000000000003 112.5 31.775000000000002 115.3Q34.6 118.1 38.625 119.65Q42.650000000000006 121.2 48.1 121.2Q53.4 121.2 57.400000000000006 119.30000000000001Q61.400000000000006 117.4 63.650000000000006 113.67500000000001Q65.9 109.95 65.9 104.5Q65.9 100.1 63.7 97.05Q61.5 94.0 57.900000000000006 91.75Q54.300000000000004 89.5 49.97500000000001 87.55Q45.650000000000006 85.6 41.325 83.5Q37.0 81.4 33.4 78.625Q29.8 75.85 27.6 71.94999999999999Q25.4 68.05 25.4 62.5Q25.4 57.0 28.275 52.824999999999996Q31.15 48.64999999999999 35.849999999999994 46.324999999999996Q40.55 44.0 46.1 44.0Q51.2 44.0 55.300000000000004 45.6Q59.400000000000006 47.2 62.300000000000004 50.599999999999994L67.7 44.0H67.9V64.5H67.7Q66.7 57.55 63.875 53.099999999999994Q61.050000000000004 48.64999999999999 56.75 46.52499999999999Q52.45 44.39999999999999 47.1 44.39999999999999Q39.900000000000006 44.39999999999999 36.150000000000006 47.974999999999994Q32.4 51.55 32.4 57.5Q32.4 61.449999999999996 34.55 64.225Q36.7 67.0 40.2 69.125Q43.7 71.25 47.925 73.175Q52.15 75.1 56.375 77.32499999999999Q60.6 79.55 64.1 82.55Q67.6 85.55 69.75 89.775Q71.9 94.0 71.9 100.0Q71.9 106.5 69.10000000000001 111.325Q66.30000000000001 116.15 61.12500000000001 118.825Q55.95 121.5 48.900000000000006 121.5Z"/><path d="M127.00000000000001 121.0Q119.4 121.0 113.45000000000002 118.025Q107.50000000000001 115.05 103.37500000000001 109.75Q99.25000000000001 104.45 97.10000000000002 97.475Q94.95000000000002 90.5 94.95000000000002 82.5Q94.95000000000002 74.5 97.22500000000002 67.525Q99.50000000000001 60.55 103.72500000000002 55.25Q107.95000000000002 49.95 113.85000000000002 46.975Q119.75000000000001 44.0 127.00000000000001 44.0Q134.25 44.0 140.125 46.975Q146.0 49.95 150.22500000000002 55.25Q154.45000000000002 60.55 156.70000000000002 67.525Q158.95000000000002 74.5 158.95000000000002 82.5Q158.95000000000002 90.5 156.82500000000002 97.475Q154.70000000000002 104.45 150.60000000000002 109.75Q146.5 115.05 140.55 118.025Q134.60000000000002 121.0 127.00000000000001 121.0ZM127.00000000000001 120.8Q133.55 120.8 137.57500000000002 117.425Q141.60000000000002 114.05 143.75 108.475Q145.9 102.9 146.675 96.1Q147.45000000000002 89.3 147.45000000000002 82.44999999999999Q147.45000000000002 75.65 146.55 68.875Q145.65 62.099999999999994 143.375 56.525Q141.10000000000002 50.95 137.125 47.575Q133.15 44.2 127.00000000000001 44.2Q120.85000000000001 44.2 116.85000000000001 47.575Q112.85000000000001 50.95 110.57500000000002 56.525Q108.30000000000001 62.099999999999994 107.37500000000001 68.875Q106.45000000000002 75.65 106.45000000000002 82.44999999999999Q106.45000000000002 89.3 107.25000000000001 96.1Q108.05000000000001 102.9 110.20000000000002 108.475Q112.35000000000001 114.05 116.42500000000001 117.425Q120.50000000000001 120.8 127.00000000000001 120.8Z"/></g><line x1="209.1" y1="45.0" x2="209.1" y2="111.0" stroke="#C8B891" stroke-width="4.4" stroke-linecap="round"/><line x1="186.1" y1="118.0" x2="232.1" y2="118.0" stroke="#C8B891" stroke-width="7.4" stroke-linecap="round"/><g fill="#FAF8F4"><path d="M256.95000000000005 120.0V119.8H265.90000000000003V45.2H256.95000000000005V45.0H309.40000000000003V65.5H309.25Q309.25 60.15 307.5 55.52499999999999Q305.75 50.89999999999999 302.025 48.05Q298.3 45.2 292.45000000000005 45.2H275.45000000000005V119.8H291.45000000000005Q298.3 119.8 302.425 116.875Q306.55 113.95 308.4 108.9Q310.25 103.85 310.25 97.5H310.45000000000005V120.0ZM292.25 92.2Q292.25 88.85 290.75 86.39999999999999Q289.25 83.94999999999999 286.775 82.625Q284.3 81.3 281.45000000000005 81.3H271.45000000000005V81.1H281.45000000000005Q284.3 81.1 286.775 79.89999999999999Q289.25 78.69999999999999 290.75 76.375Q292.25 74.05 292.25 70.69999999999999H292.45000000000005V92.2Z"/><path d="M348.20000000000005 81.6V81.4H363.20000000000005Q368.0 81.4 371.35 79.2Q374.70000000000005 77.0 376.45000000000005 72.975Q378.20000000000005 68.94999999999999 378.20000000000005 63.5Q378.20000000000005 58.05 376.45000000000005 53.925Q374.70000000000005 49.8 371.35 47.5Q368.0 45.2 363.20000000000005 45.2H330.20000000000005V45.0H363.20000000000005Q370.75 45.0 376.375 46.925Q382.0 48.849999999999994 385.1 52.925Q388.20000000000005 57.0 388.20000000000005 63.5Q388.20000000000005 70.0 385.30000000000007 73.975Q382.40000000000003 77.94999999999999 376.82500000000005 79.77499999999999Q371.25 81.6 363.20000000000005 81.6ZM330.20000000000005 120.0V119.8H361.70000000000005V120.0ZM341.15000000000003 119.9V45.099999999999994H350.70000000000005V119.9ZM387.70000000000005 120.5Q383.35 120.5 380.925 118.85Q378.5 117.2 377.4 114.42500000000001Q376.3 111.65 376.025 108.2Q375.75 104.75 375.70000000000005 101.05Q375.65000000000003 97.35 375.30000000000007 93.9Q374.95000000000005 90.45 373.75 87.67500000000001Q372.55 84.9 369.925 83.25Q367.3 81.6 362.70000000000005 81.6H348.20000000000005V81.4H364.70000000000005Q372.05 81.4 376.375 83.5Q380.70000000000005 85.6 382.82500000000005 89.025Q384.95000000000005 92.45 385.65000000000003 96.575Q386.35 100.7 386.375 104.825Q386.40000000000003 108.95 386.5 112.375Q386.6 115.8 387.55 117.9Q388.5 120.0 391.15000000000003 120.0Q392.75 120.0 394.15 119.65Q395.55 119.3 396.6 118.8L396.70000000000005 118.9Q395.5 119.55 393.25 120.025Q391.0 120.5 387.70000000000005 120.5Z"/><path d="M432.95000000000005 95.7V95.5H464.75000000000006V95.7ZM451.20000000000005 43.5 477.65000000000003 119.8H484.75000000000006V120.0H455.75000000000006V119.8H466.70000000000005L446.50000000000006 57.199999999999996L424.6 119.8H436.75000000000006V120.0H414.75000000000006V119.8H424.40000000000003L451.00000000000006 43.5Z"/></g><g fill="#FAF8F4"><path d="M522.95 99.0V120.0H525.5000000000001V99.0ZM524.36 101.4H528.6500000000001Q530.69 101.4 531.9650000000001 102.375Q533.2400000000001 103.35 533.2400000000001 105.3Q533.2400000000001 107.22 531.9650000000001 108.21000000000001Q530.69 109.2 528.6500000000001 109.2H524.36V111.6H528.6500000000001Q530.69 111.6 532.2950000000001 110.835Q533.9000000000001 110.07 534.845 108.645Q535.7900000000001 107.22 535.7900000000001 105.3Q535.7900000000001 103.35 534.845 101.94Q533.9000000000001 100.53 532.2950000000001 99.765Q530.69 99.0 528.6500000000001 99.0H524.36Z"/><path d="M551.39 109.5Q551.39 107.13 552.425 105.27Q553.46 103.41 555.26 102.33Q557.0600000000001 101.25 559.34 101.25Q561.65 101.25 563.435 102.33Q565.22 103.41 566.255 105.27Q567.29 107.13 567.29 109.5Q567.29 111.87 566.255 113.73Q565.22 115.59 563.435 116.67Q561.65 117.75 559.34 117.75Q557.0600000000001 117.75 555.26 116.67Q553.46 115.59 552.425 113.73Q551.39 111.87 551.39 109.5ZM548.69 109.5Q548.69 111.78 549.485 113.75999999999999Q550.28 115.74 551.72 117.195Q553.16 118.65 555.11 119.475Q557.0600000000001 120.3 559.34 120.3Q561.65 120.3 563.585 119.475Q565.52 118.65 566.96 117.195Q568.4 115.74 569.1949999999999 113.75999999999999Q569.99 111.78 569.99 109.5Q569.99 107.19 569.1949999999999 105.225Q568.4 103.26 566.96 101.805Q565.52 100.35 563.585 99.525Q561.65 98.7 559.34 98.7Q557.0600000000001 98.7 555.11 99.525Q553.16 100.35 551.72 101.805Q550.28 103.26 549.485 105.225Q548.69 107.19 548.69 109.5Z"/><path d="M584.09 99.0V120.0H594.8900000000001V117.6H586.6400000000001V99.0Z"/><path d="M609.59 109.5Q609.59 107.13 610.625 105.27Q611.6600000000001 103.41 613.46 102.33Q615.2600000000001 101.25 617.5400000000001 101.25Q619.85 101.25 621.635 102.33Q623.4200000000001 103.41 624.455 105.27Q625.49 107.13 625.49 109.5Q625.49 111.87 624.455 113.73Q623.4200000000001 115.59 621.635 116.67Q619.85 117.75 617.5400000000001 117.75Q615.2600000000001 117.75 613.46 116.67Q611.6600000000001 115.59 610.625 113.73Q609.59 111.87 609.59 109.5ZM606.8900000000001 109.5Q606.8900000000001 111.78 607.6850000000001 113.75999999999999Q608.48 115.74 609.9200000000001 117.195Q611.36 118.65 613.3100000000001 119.475Q615.2600000000001 120.3 617.5400000000001 120.3Q619.85 120.3 621.7850000000001 119.475Q623.72 118.65 625.1600000000001 117.195Q626.6 115.74 627.395 113.75999999999999Q628.19 111.78 628.19 109.5Q628.19 107.19 627.395 105.225Q626.6 103.26 625.1600000000001 101.805Q623.72 100.35 621.7850000000001 99.525Q619.85 98.7 617.5400000000001 98.7Q615.2600000000001 98.7 613.3100000000001 99.525Q611.36 100.35 609.9200000000001 101.805Q608.48 103.26 607.6850000000001 105.225Q606.8900000000001 107.19 606.8900000000001 109.5Z"/></g></svg>